<svg width="150" height="35" viewBox="0 0 150 35" fill="none" xmlns="http://www.w3.org/2000/svg">
<path d="M5.664 27V13.44H0.816V10.2H14.304V13.44H9.264V27H5.664ZM16.7978 27V9.24H20.1818V16.896L19.5098 17.184C19.6698 16.608 19.9818 16.088 20.4458 15.624C20.9098 15.144 21.4618 14.76 22.1018 14.472C22.7418 14.184 23.4058 14.04 24.0938 14.04C25.0538 14.04 25.8538 14.232 26.4938 14.616C27.1498 15 27.6378 15.584 27.9578 16.368C28.2938 17.136 28.4618 18.096 28.4618 19.248V27H25.0538V19.488C25.0538 18.912 24.9738 18.432 24.8138 18.048C24.6538 17.664 24.4138 17.384 24.0938 17.208C23.7738 17.032 23.3658 16.952 22.8698 16.968C22.4858 16.968 22.1338 17.032 21.8138 17.16C21.4938 17.272 21.2058 17.44 20.9498 17.664C20.7098 17.888 20.5258 18.144 20.3978 18.432C20.2698 18.72 20.2058 19.04 20.2058 19.392V27H18.5018C18.1498 27 17.8298 27 17.5418 27C17.2538 27 17.0058 27 16.7978 27ZM37.7514 27.24C36.3754 27.24 35.1674 26.96 34.1274 26.4C33.1034 25.84 32.3034 25.072 31.7274 24.096C31.1674 23.12 30.8874 22.008 30.8874 20.76C30.8874 19.768 31.0474 18.864 31.3674 18.048C31.6874 17.216 32.1354 16.504 32.7114 15.912C33.2874 15.32 33.9674 14.864 34.7514 14.544C35.5514 14.208 36.4234 14.04 37.3674 14.04C38.2314 14.04 39.0234 14.2 39.7434 14.52C40.4794 14.824 41.1114 15.264 41.6394 15.84C42.1834 16.4 42.5994 17.064 42.8874 17.832C43.1754 18.6 43.3114 19.44 43.2954 20.352L43.2714 21.408H33.0714L32.5194 19.296H40.4634L40.0554 19.728V19.224C40.0234 18.776 39.8794 18.384 39.6234 18.048C39.3834 17.712 39.0714 17.448 38.6874 17.256C38.3034 17.048 37.8794 16.944 37.4154 16.944C36.6954 16.944 36.0874 17.088 35.5914 17.376C35.1114 17.648 34.7434 18.048 34.4874 18.576C34.2474 19.088 34.1274 19.728 34.1274 20.496C34.1274 21.248 34.2874 21.912 34.6074 22.488C34.9274 23.048 35.3834 23.48 35.9754 23.784C36.5834 24.088 37.2954 24.24 38.1114 24.24C38.6714 24.24 39.1834 24.152 39.6474 23.976C40.1114 23.8 40.6154 23.496 41.1594 23.064L42.7674 25.344C42.3194 25.744 41.8154 26.088 41.2554 26.376C40.6954 26.664 40.1194 26.88 39.5274 27.024C38.9354 27.168 38.3434 27.24 37.7514 27.24ZM53.6293 27V10.2H60.9253C62.0613 10.2 63.0133 10.368 63.7813 10.704C64.5493 11.024 65.1333 11.496 65.5333 12.12C65.9493 12.728 66.1573 13.48 66.1573 14.376C66.1573 15.304 65.9093 16.088 65.4133 16.728C64.9333 17.368 64.2533 17.816 63.3733 18.072L63.3493 17.568C64.0853 17.744 64.7253 18.04 65.2693 18.456C65.8293 18.856 66.2613 19.352 66.5653 19.944C66.8853 20.536 67.0453 21.208 67.0453 21.96C67.0453 22.792 66.9013 23.528 66.6133 24.168C66.3413 24.792 65.9413 25.32 65.4133 25.752C64.9013 26.168 64.2853 26.48 63.5653 26.688C62.8453 26.896 62.0453 27 61.1653 27H53.6293ZM57.0853 23.88H61.0213C61.7893 23.88 62.3893 23.704 62.8213 23.352C63.2533 22.984 63.4693 22.472 63.4693 21.816C63.4693 21.4 63.3653 21.048 63.1573 20.76C62.9493 20.472 62.6533 20.256 62.2693 20.112C61.8853 19.968 61.4293 19.896 60.9013 19.896H57.0853V23.88ZM57.0853 16.992H60.4933C60.9413 16.992 61.3173 16.92 61.6213 16.776C61.9413 16.616 62.1893 16.4 62.3653 16.128C62.5413 15.84 62.6293 15.512 62.6293 15.144C62.6293 14.568 62.4293 14.12 62.0293 13.8C61.6453 13.48 61.0693 13.32 60.3013 13.32H57.0853V16.992ZM69.7671 27V9.24H73.1751V27H69.7671ZM82.2559 27.24C80.9759 27.24 79.8239 26.96 78.7999 26.4C77.7919 25.824 76.9919 25.04 76.3999 24.048C75.8239 23.056 75.5359 21.928 75.5359 20.664C75.5359 19.368 75.8239 18.224 76.3999 17.232C76.9919 16.24 77.7919 15.464 78.7999 14.904C79.8239 14.328 80.9759 14.04 82.2559 14.04C83.5519 14.04 84.7039 14.328 85.7119 14.904C86.7199 15.464 87.5119 16.24 88.0879 17.232C88.6799 18.224 88.9759 19.368 88.9759 20.664C88.9759 21.928 88.6799 23.056 88.0879 24.048C87.5119 25.04 86.7199 25.824 85.7119 26.4C84.7039 26.96 83.5519 27.24 82.2559 27.24ZM82.2559 24.288C82.8959 24.288 83.4559 24.128 83.9359 23.808C84.4319 23.488 84.8159 23.056 85.0879 22.512C85.3759 21.968 85.5119 21.352 85.4959 20.664C85.5119 19.944 85.3759 19.312 85.0879 18.768C84.8159 18.208 84.4319 17.776 83.9359 17.472C83.4559 17.152 82.8959 16.992 82.2559 16.992C81.6319 16.992 81.0719 17.152 80.5759 17.472C80.0799 17.792 79.6879 18.224 79.3999 18.768C79.1119 19.312 78.9759 19.944 78.9919 20.664C78.9759 21.352 79.1119 21.968 79.3999 22.512C79.6879 23.056 80.0799 23.488 80.5759 23.808C81.0719 24.128 81.6319 24.288 82.2559 24.288ZM97.3239 32.52C96.3319 32.52 95.3399 32.376 94.3479 32.088C93.3719 31.8 92.5799 31.416 91.9719 30.936L93.1719 28.488C93.6839 28.84 94.2679 29.12 94.9239 29.328C95.5959 29.536 96.2839 29.64 96.9879 29.64C97.8359 29.64 98.5239 29.512 99.0519 29.256C99.5959 29 99.9959 28.616 100.252 28.104C100.524 27.608 100.66 26.976 100.66 26.208V24L101.236 24.144C101.14 24.64 100.868 25.112 100.42 25.56C99.9879 25.992 99.4519 26.344 98.8119 26.616C98.1719 26.888 97.4999 27.024 96.7959 27.024C95.6279 27.024 94.5799 26.752 93.6519 26.208C92.7399 25.648 92.0199 24.888 91.4919 23.928C90.9639 22.968 90.6999 21.864 90.6999 20.616C90.6999 19.336 90.9639 18.2 91.4919 17.208C92.0199 16.216 92.7319 15.44 93.6279 14.88C94.5399 14.32 95.5639 14.04 96.6999 14.04C97.1799 14.04 97.6359 14.096 98.0679 14.208C98.5159 14.32 98.9239 14.48 99.2919 14.688C99.6759 14.88 100.02 15.096 100.324 15.336C100.628 15.576 100.876 15.84 101.068 16.128C101.26 16.416 101.38 16.704 101.428 16.992L100.708 17.208L100.804 14.304H104.092V26.04C104.092 27.064 103.932 27.976 103.612 28.776C103.308 29.592 102.86 30.272 102.268 30.816C101.692 31.376 100.988 31.8 100.156 32.088C99.3239 32.376 98.3799 32.52 97.3239 32.52ZM97.4199 24.264C98.0919 24.264 98.6759 24.112 99.1719 23.808C99.6839 23.504 100.076 23.08 100.348 22.536C100.636 21.992 100.78 21.36 100.78 20.64C100.78 19.904 100.636 19.264 100.348 18.72C100.076 18.176 99.6839 17.752 99.1719 17.448C98.6759 17.128 98.0919 16.968 97.4199 16.968C96.7639 16.968 96.1879 17.128 95.6919 17.448C95.1959 17.752 94.8039 18.176 94.5159 18.72C94.2439 19.264 94.1079 19.896 94.1079 20.616C94.1079 21.336 94.2439 21.976 94.5159 22.536C94.8039 23.08 95.1959 23.504 95.6919 23.808C96.1879 24.112 96.7639 24.264 97.4199 24.264Z" fill="#1D1D1D"/>
<path d="M127.698 28.7394L141.25 15.1871L134.813 8.74999L121.261 22.3023C121.074 22.4891 120.942 22.7229 120.877 22.9789L119.375 30.625L127.02 29.1229C127.276 29.0587 127.511 28.926 127.698 28.7394V28.7394ZM145.625 10.8121C146.172 10.2651 146.479 9.52338 146.479 8.74999C146.479 7.97659 146.172 7.23486 145.625 6.6879L143.312 4.37499C142.765 3.8282 142.023 3.52103 141.25 3.52103C140.477 3.52103 139.735 3.8282 139.188 4.37499L136.875 6.6879L143.312 13.125L145.625 10.8121Z" fill="black"/>
</svg>
